<svg xmlns="http://www.w3.org/2000/svg" viewBox="0 0 950 183"><defs><style>.cls-1{fill:#fff;}</style></defs><title>Artboard 2 copylogo</title><g id="Layer_1" data-name="Layer 1"><path d="M27.49,120.88a26.51,26.51,0,0,1-10-1.81,20,20,0,0,1-7.63-5.43,24.58,24.58,0,0,1-4.87-9A41.45,41.45,0,0,1,3.31,92.27,43.15,43.15,0,0,1,5,79.69a25.81,25.81,0,0,1,4.87-9.24,20.55,20.55,0,0,1,7.63-5.66,24.88,24.88,0,0,1,10-1.93q7.56,0,12.54,3.21a22.2,22.2,0,0,1,8,9.73l-9.08,4.82A12.84,12.84,0,0,0,35,74.55a11.26,11.26,0,0,0-7.48-2.29,11.87,11.87,0,0,0-9.44,4q-3.5,4-3.49,11.25v8.84q0,7.3,3.49,11.21a12,12,0,0,0,9.44,3.9,11.5,11.5,0,0,0,7.76-2.58,14.81,14.81,0,0,0,4.38-6.34l8.6,5.06a24.67,24.67,0,0,1-8.12,9.76A21.68,21.68,0,0,1,27.49,120.88Z"/><path d="M99.25,63.82V98.3q0,6.58,2.53,9.88t8.56,3.3q6,0,8.56-3.3t2.53-9.88V63.82h10.45V96.93a42.86,42.86,0,0,1-1.17,10.69,18.13,18.13,0,0,1-3.73,7.47,15.18,15.18,0,0,1-6.71,4.38,31.25,31.25,0,0,1-10,1.41,30.72,30.72,0,0,1-10-1.41,15.09,15.09,0,0,1-6.63-4.38,17.74,17.74,0,0,1-3.7-7.47,44.52,44.52,0,0,1-1.12-10.69V63.82Z"/><path d="M187.16,119.91H176.55V63.82h25.32A18.58,18.58,0,0,1,208.78,65,14,14,0,0,1,214,68.52a16.1,16.1,0,0,1,3.3,5.51,21,21,0,0,1,1.16,7.15,18.39,18.39,0,0,1-2.61,10,14.22,14.22,0,0,1-7.84,6l11.5,22.82H207.65L197.21,98.3H187.16Zm13.66-30.53a6.76,6.76,0,0,0,4.82-1.65,6.1,6.1,0,0,0,1.77-4.7v-3.7a6,6,0,0,0-1.77-4.66,6.88,6.88,0,0,0-4.82-1.61H187.16V89.38Z"/><path d="M272.42,119.91H261.81V63.82h25.31A18.51,18.51,0,0,1,294,65a14,14,0,0,1,5.19,3.49A15.92,15.92,0,0,1,302.51,74a20.78,20.78,0,0,1,1.17,7.15,18.39,18.39,0,0,1-2.61,10,14.29,14.29,0,0,1-7.84,6l11.49,22.82H292.91L282.46,98.3h-10Zm13.66-30.53a6.79,6.79,0,0,0,4.82-1.65,6.1,6.1,0,0,0,1.77-4.7v-3.7a6,6,0,0,0-1.77-4.66,6.91,6.91,0,0,0-4.82-1.61H272.42V89.38Z"/><path d="M344.74,119.91v-8.52h7.39v-39h-7.39V63.82h25.47v8.52h-7.47v39.05h7.47v8.52Z"/><path d="M434.74,120.88a26.56,26.56,0,0,1-10-1.81,20,20,0,0,1-7.63-5.43,24.41,24.41,0,0,1-4.86-9,41.11,41.11,0,0,1-1.69-12.41,42.8,42.8,0,0,1,1.69-12.58,25.64,25.64,0,0,1,4.86-9.24,20.55,20.55,0,0,1,7.63-5.66,24.93,24.93,0,0,1,10-1.93q7.54,0,12.53,3.21a22.13,22.13,0,0,1,8,9.73l-9.08,4.82a12.84,12.84,0,0,0-3.94-6.07,11.25,11.25,0,0,0-7.47-2.29,11.9,11.9,0,0,0-9.45,4q-3.5,4-3.49,11.25v8.84q0,7.3,3.49,11.21a12.07,12.07,0,0,0,9.45,3.9,11.49,11.49,0,0,0,7.75-2.58,14.81,14.81,0,0,0,4.38-6.34l8.6,5.06a24.67,24.67,0,0,1-8.12,9.76A21.67,21.67,0,0,1,434.74,120.88Z"/><path d="M496.45,119.91V63.82h10.61v46.69h22.1v9.4Z"/><path d="M570.22,119.91V63.82h37v9.4H580.82V86.81h23.31v9.4H580.82v14.3h26.36v9.4Z"/><rect x="654.85" y="63.09" width="98.58" height="40.1" rx="6.74"/><path class="cls-1" d="M667.81,73.93h8.27a5,5,0,0,1,3.66,1.31,5.41,5.41,0,0,1,1,5.29,3.89,3.89,0,0,1-.75,1.21,2.87,2.87,0,0,1-1,.69,4.26,4.26,0,0,1-1.16.28v.16a4.55,4.55,0,0,1,1.25.27,3.87,3.87,0,0,1,1.27.76,4.26,4.26,0,0,1,1.39,3.34,6.11,6.11,0,0,1-.36,2.11,5.23,5.23,0,0,1-1,1.72,4.79,4.79,0,0,1-1.53,1.14,4.57,4.57,0,0,1-1.93.41h-9.1Zm3,7.9h4.68a2.42,2.42,0,0,0,1.74-.58,2.13,2.13,0,0,0,.62-1.64v-.86a2.17,2.17,0,0,0-.62-1.65,2.47,2.47,0,0,0-1.74-.57h-4.68Zm0,8.19H676a2.63,2.63,0,0,0,1.85-.61,2.31,2.31,0,0,0,.67-1.77v-.91a2.31,2.31,0,0,0-.67-1.77,2.63,2.63,0,0,0-1.85-.61h-5.19Z"/><path class="cls-1" d="M690.71,92.94a6.67,6.67,0,0,1-2.68-.51A5.43,5.43,0,0,1,686,91a6.49,6.49,0,0,1-1.27-2.3,10.29,10.29,0,0,1,0-6A6.53,6.53,0,0,1,686,80.34a5.55,5.55,0,0,1,2-1.46,6.85,6.85,0,0,1,2.68-.5,6.36,6.36,0,0,1,2.69.53,5.4,5.4,0,0,1,1.94,1.49,6.57,6.57,0,0,1,1.16,2.21,9,9,0,0,1,.39,2.7v1.1h-9.56v.45a3.72,3.72,0,0,0,.95,2.62,3.55,3.55,0,0,0,2.72,1,4,4,0,0,0,2.17-.56,5,5,0,0,0,1.5-1.52l1.71,1.69a5.56,5.56,0,0,1-2.25,2.06A7.31,7.31,0,0,1,690.71,92.94Zm0-12.29a3.47,3.47,0,0,0-1.38.27,3,3,0,0,0-1.07.75,3.24,3.24,0,0,0-.69,1.15,4.36,4.36,0,0,0-.24,1.47v.19h6.48v-.27a3.86,3.86,0,0,0-.83-2.58A2.82,2.82,0,0,0,690.71,80.65Z"/><path class="cls-1" d="M704,92.62a2.74,2.74,0,0,1-3.08-3V81.08h-2.17V78.7h1.18a1.3,1.3,0,0,0,1-.32,1.59,1.59,0,0,0,.28-1V74.89h2.63V78.7h2.92v2.38h-2.92v9.16h2.7v2.38Z"/><path class="cls-1" d="M720.11,92.62a2.3,2.3,0,0,1-1.77-.66,2.9,2.9,0,0,1-.75-1.67h-.13a3.38,3.38,0,0,1-1.48,2,4.77,4.77,0,0,1-2.6.67,4.61,4.61,0,0,1-3.33-1.12,4,4,0,0,1-1.16-3,3.54,3.54,0,0,1,1.51-3.13,7.75,7.75,0,0,1,4.43-1h2.52V83.44a2.68,2.68,0,0,0-.7-2,3,3,0,0,0-2.17-.69,3.53,3.53,0,0,0-2,.53,5,5,0,0,0-1.31,1.37l-1.74-1.58a5.6,5.6,0,0,1,2-1.94,6.26,6.26,0,0,1,3.29-.76,6.13,6.13,0,0,1,4.15,1.25,4.53,4.53,0,0,1,1.45,3.62v7h1.47v2.38Zm-5.89-1.9a3.93,3.93,0,0,0,2.25-.6,1.88,1.88,0,0,0,.88-1.62v-2h-2.47c-2,0-3,.62-3,1.87v.48a1.64,1.64,0,0,0,.63,1.41A2.84,2.84,0,0,0,714.22,90.72Z"/><path class="cls-1" d="M743.32,92.62H730.63V89.73l6-5.33A13,13,0,0,0,738.78,82a4.4,4.4,0,0,0,.77-2.45v-.35a2.83,2.83,0,0,0-.82-2.14,3.07,3.07,0,0,0-2.21-.78,3.67,3.67,0,0,0-1.35.23,3.08,3.08,0,0,0-1,.63,3.69,3.69,0,0,0-.71.94,5.84,5.84,0,0,0-.44,1.15l-2.65-1a8.26,8.26,0,0,1,.81-1.7A5.87,5.87,0,0,1,732.45,75a6,6,0,0,1,1.83-1,8.28,8.28,0,0,1,5,0,5.42,5.42,0,0,1,1.89,1.15,5,5,0,0,1,1.17,1.76,6,6,0,0,1,.4,2.22,6.15,6.15,0,0,1-.35,2.09,7.39,7.39,0,0,1-1,1.82A10.93,10.93,0,0,1,740,84.69c-.54.52-1.12,1-1.72,1.58l-4.39,3.78h9.42Z"/></g></svg>