<svg xmlns="http://www.w3.org/2000/svg" viewBox="0 0 950 183"><title>Artboard 2 copy 4no_beta</title><g id="Layer_1" data-name="Layer 1"><path d="M33.69,129.74a33.31,33.31,0,0,1-12.57-2.27,25.29,25.29,0,0,1-9.59-6.82,30.7,30.7,0,0,1-6.1-11.25A51.68,51.68,0,0,1,3.31,93.8,53.64,53.64,0,0,1,5.43,78a32.22,32.22,0,0,1,6.1-11.61,26,26,0,0,1,9.59-7.12,31.48,31.48,0,0,1,12.57-2.42q9.5,0,15.75,4t10,12.21L48,79.17a15.94,15.94,0,0,0-4.94-7.62q-3.44-2.88-9.39-2.88-7.47,0-11.86,5T17.44,87.85V99q0,9.19,4.39,14.08t11.86,4.9a14.49,14.49,0,0,0,9.74-3.23,18.49,18.49,0,0,0,5.5-8l10.8,6.36a31,31,0,0,1-10.19,12.27Q43.18,129.75,33.69,129.74Z"/><path d="M123.83,58.07v43.3q0,8.28,3.18,12.42t10.75,4.14q7.58,0,10.75-4.14t3.18-12.42V58.07h13.12V99.66a54.26,54.26,0,0,1-1.46,13.42,23,23,0,0,1-4.69,9.39,18.93,18.93,0,0,1-8.43,5.5,39.27,39.27,0,0,1-12.57,1.77A38.68,38.68,0,0,1,125.09,128a18.93,18.93,0,0,1-8.33-5.5,22.41,22.41,0,0,1-4.64-9.39,55.94,55.94,0,0,1-1.41-13.42V58.07Z"/><path d="M234.26,128.53H220.93V58.07h31.8a23.48,23.48,0,0,1,8.68,1.51,17.5,17.5,0,0,1,6.51,4.4,19.78,19.78,0,0,1,4.14,6.91,26.11,26.11,0,0,1,1.47,9,23.12,23.12,0,0,1-3.29,12.52,17.84,17.84,0,0,1-9.84,7.47l14.44,28.67H260l-13.12-27.16H234.26Zm17.16-38.36a8.55,8.55,0,0,0,6.06-2.07,7.71,7.71,0,0,0,2.22-5.9V77.55a7.52,7.52,0,0,0-2.22-5.85,8.67,8.67,0,0,0-6.06-2H234.26V90.17Z"/><path d="M341.35,128.53H328V58.07h31.8a23.48,23.48,0,0,1,8.68,1.51A17.58,17.58,0,0,1,375,64a20.09,20.09,0,0,1,4.14,6.91,26.35,26.35,0,0,1,1.46,9,23.11,23.11,0,0,1-3.28,12.52,17.91,17.91,0,0,1-9.84,7.47l14.43,28.67H367.09L354,101.37H341.35Zm17.17-38.36a8.53,8.53,0,0,0,6.05-2.07,7.68,7.68,0,0,0,2.22-5.9V77.55a7.49,7.49,0,0,0-2.22-5.85,8.64,8.64,0,0,0-6.05-2H341.35V90.17Z"/><path d="M432.2,128.53v-10.7h9.29V68.77H432.2V58.07h32v10.7h-9.39v49.06h9.39v10.7Z"/><path d="M545.25,129.74a33.22,33.22,0,0,1-12.56-2.27,25.14,25.14,0,0,1-9.59-6.82A30.72,30.72,0,0,1,517,109.4a52,52,0,0,1-2.12-15.6A54,54,0,0,1,517,78,32.24,32.24,0,0,1,523.1,66.4a25.89,25.89,0,0,1,9.59-7.12,31.4,31.4,0,0,1,12.56-2.42q9.5,0,15.75,4t10,12.21l-11.4,6.06a16,16,0,0,0-5-7.62q-3.43-2.88-9.39-2.88-7.47,0-11.86,5T529,87.85V99q0,9.19,4.39,14.08t11.86,4.9A14.49,14.49,0,0,0,555,114.7a18.49,18.49,0,0,0,5.5-8l10.81,6.36a31.07,31.07,0,0,1-10.2,12.27Q554.74,129.75,545.25,129.74Z"/><path d="M622.78,128.53V58.07H636.1v58.65h27.76v11.81Z"/><path d="M715.44,128.53V58.07h46.43V69.88H728.76V86.94H758V98.75H728.76v18h33.11v11.81Z"/></g></svg>