<svg xmlns="http://www.w3.org/2000/svg" viewBox="0 0 950 183"><defs><style>.cls-1{fill:#fff;}</style></defs><title>Artboard 2 copy 3no_beta</title><g id="Layer_2" data-name="Layer 2"><rect width="950" height="183"/></g><g id="Layer_1" data-name="Layer 1"><path class="cls-1" d="M71.91,135a38.21,38.21,0,0,1-14.49-2.62,29,29,0,0,1-11.05-7.85,35.76,35.76,0,0,1-7-13,59.79,59.79,0,0,1-2.44-18,62.13,62.13,0,0,1,2.44-18.21,37.36,37.36,0,0,1,7-13.38,29.92,29.92,0,0,1,11.05-8.2A36.22,36.22,0,0,1,71.91,51q10.94,0,18.15,4.65t11.52,14.08l-13.15,7a18.48,18.48,0,0,0-5.7-8.79q-4-3.31-10.82-3.31-8.61,0-13.67,5.82T53.18,86.7V99.5q0,10.59,5.06,16.23t13.67,5.65q6.87,0,11.23-3.73a21.43,21.43,0,0,0,6.34-9.19l12.45,7.33a35.87,35.87,0,0,1-11.75,14.14Q82.85,135,71.91,135Z"/><path class="cls-1" d="M175.81,52.38V102.3q0,9.54,3.66,14.31t12.39,4.77q8.73,0,12.4-4.77t3.66-14.31V52.38h15.13v47.94a62.48,62.48,0,0,1-1.69,15.47A26.39,26.39,0,0,1,216,126.61a21.72,21.72,0,0,1-9.72,6.34,45.17,45.17,0,0,1-14.48,2,44.6,44.6,0,0,1-14.49-2,21.89,21.89,0,0,1-9.6-6.34,25.84,25.84,0,0,1-5.35-10.82,64.18,64.18,0,0,1-1.63-15.47V52.38Z"/><path class="cls-1" d="M303.09,133.59H287.73V52.38h36.65a26.94,26.94,0,0,1,10,1.75,20.12,20.12,0,0,1,7.5,5.06,23,23,0,0,1,4.77,8,30,30,0,0,1,1.69,10.35,26.66,26.66,0,0,1-3.78,14.43,20.61,20.61,0,0,1-11.34,8.61l16.63,33h-17.1L317.64,102.3H303.09Zm19.78-44.21a9.82,9.82,0,0,0,7-2.38,8.84,8.84,0,0,0,2.56-6.81V74.84q0-4.43-2.56-6.75a10,10,0,0,0-7-2.33H303.09V89.38Z"/><path class="cls-1" d="M426.53,133.59H411.18V52.38h36.65a26.93,26.93,0,0,1,10,1.75,20.23,20.23,0,0,1,7.51,5.06,23.29,23.29,0,0,1,4.77,8,30.29,30.29,0,0,1,1.68,10.35A26.66,26.66,0,0,1,468,91.94a20.61,20.61,0,0,1-11.34,8.61l16.64,33H456.2L441.08,102.3H426.53Zm19.78-44.21a9.82,9.82,0,0,0,7-2.38,8.84,8.84,0,0,0,2.56-6.81V74.84q0-4.43-2.56-6.75a10,10,0,0,0-7-2.33H426.53V89.38Z"/><path class="cls-1" d="M531.24,133.59V121.26H542V64.71H531.24V52.38h36.89V64.71H557.31v56.55h10.82v12.33Z"/><path class="cls-1" d="M661.55,135a38.12,38.12,0,0,1-14.48-2.62A29,29,0,0,1,636,124.52a35.76,35.76,0,0,1-7-13,60.11,60.11,0,0,1-2.44-18A62.47,62.47,0,0,1,629,75.36,37.36,37.36,0,0,1,636,62a29.87,29.87,0,0,1,11.06-8.2A36.13,36.13,0,0,1,661.55,51q10.94,0,18.15,4.65t11.52,14.08l-13.15,7a18.48,18.48,0,0,0-5.7-8.79q-3.95-3.31-10.82-3.31-8.61,0-13.67,5.82T642.82,86.7V99.5q0,10.59,5.06,16.23t13.67,5.65q6.87,0,11.23-3.73a21.43,21.43,0,0,0,6.34-9.19l12.45,7.33a35.79,35.79,0,0,1-11.75,14.14Q672.48,135,661.55,135Z"/><path class="cls-1" d="M750.91,133.59V52.38h15.35V120h32v13.61Z"/><path class="cls-1" d="M857.71,133.59V52.38h53.52V66H873.07V85.66h33.74V99.27H873.07V120h38.16v13.61Z"/></g></svg>