<svg xmlns="http://www.w3.org/2000/svg" viewBox="0 0 950 183"><defs><style>.cls-1{fill:#fff;}</style></defs><title>Artboard 2logo</title><g id="Layer_2" data-name="Layer 2"><rect width="950" height="183"/></g><g id="Layer_1" data-name="Layer 1"><path class="cls-1" d="M65.3,125.14A30.94,30.94,0,0,1,53.55,123a23.56,23.56,0,0,1-9-6.37,28.83,28.83,0,0,1-5.71-10.52,48.62,48.62,0,0,1-2-14.59,50.48,50.48,0,0,1,2-14.77,30,30,0,0,1,5.71-10.85,24.29,24.29,0,0,1,9-6.66A29.31,29.31,0,0,1,65.3,57Q74.18,57,80,60.76a26,26,0,0,1,9.34,11.42L78.7,77.85a14.94,14.94,0,0,0-4.62-7.13Q70.87,68,65.3,68a13.94,13.94,0,0,0-11.09,4.72Q50.1,77.48,50.1,86V96.35q0,8.58,4.11,13.16t11.09,4.58a13.52,13.52,0,0,0,9.11-3,17.41,17.41,0,0,0,5.14-7.45l10.1,5.94A29,29,0,0,1,80.12,121Q74.18,125.14,65.3,125.14Z"/><path class="cls-1" d="M149.59,58.12V98.61q0,7.74,3,11.61t10.06,3.87q7.08,0,10-3.87t3-11.61V58.12h12.27V97a50.67,50.67,0,0,1-1.36,12.55,21.49,21.49,0,0,1-4.39,8.78,17.73,17.73,0,0,1-7.89,5.14,36.72,36.72,0,0,1-11.75,1.66,36.25,36.25,0,0,1-11.75-1.66,17.74,17.74,0,0,1-7.79-5.14,21,21,0,0,1-4.34-8.78A52.3,52.3,0,0,1,137.32,97V58.12Z"/><path class="cls-1" d="M252.85,124H240.39V58.12h29.74a22,22,0,0,1,8.11,1.41,16.41,16.41,0,0,1,6.09,4.11,18.63,18.63,0,0,1,3.87,6.47,24.5,24.5,0,0,1,1.37,8.4,21.57,21.57,0,0,1-3.07,11.7,16.76,16.76,0,0,1-9.2,7L290.8,124H276.92L264.65,98.61h-11.8Zm16-35.86a8,8,0,0,0,5.66-1.94,7.16,7.16,0,0,0,2.08-5.52V76.34a7,7,0,0,0-2.08-5.48A8.08,8.08,0,0,0,268.9,69h-16V88.14Z"/><path class="cls-1" d="M353,124H340.54V58.12h29.73a22.05,22.05,0,0,1,8.12,1.41,16.58,16.58,0,0,1,6.09,4.11,18.63,18.63,0,0,1,3.87,6.47,24.5,24.5,0,0,1,1.37,8.4,21.66,21.66,0,0,1-3.07,11.7,16.79,16.79,0,0,1-9.2,7L391,124H377.07L364.8,98.61H353Zm16.05-35.86a8,8,0,0,0,5.66-1.94,7.19,7.19,0,0,0,2.08-5.52V76.34a7.06,7.06,0,0,0-2.08-5.48A8.08,8.08,0,0,0,369.05,69H353V88.14Z"/><path class="cls-1" d="M438,124V114h8.68V68.12H438v-10h29.92v10h-8.78V114h8.78v10Z"/><path class="cls-1" d="M543.67,125.14A31,31,0,0,1,531.91,123a23.45,23.45,0,0,1-9-6.37,28.83,28.83,0,0,1-5.71-10.52,48.29,48.29,0,0,1-2-14.59,50.14,50.14,0,0,1,2-14.77A30,30,0,0,1,523,65.91a24.17,24.17,0,0,1,9-6.66A29.36,29.36,0,0,1,543.67,57q8.87,0,14.72,3.77a26,26,0,0,1,9.35,11.42l-10.67,5.67a15,15,0,0,0-4.63-7.13Q549.23,68,543.67,68a14,14,0,0,0-11.1,4.72q-4.1,4.73-4.1,13.21V96.35q0,8.58,4.1,13.16t11.1,4.58a13.49,13.49,0,0,0,9.1-3,17.43,17.43,0,0,0,5.15-7.45l10.1,5.94A29,29,0,0,1,558.48,121Q552.54,125.14,543.67,125.14Z"/><path class="cls-1" d="M616.16,124V58.12h12.46V113h26v11Z"/><path class="cls-1" d="M702.81,124V58.12h43.42v11h-31v16h27.37v11H715.27V113h31v11Z"/><rect class="cls-1" x="802.22" y="57.25" width="115.8" height="47.11" rx="6.74"/><path d="M816.42,70h10.16a6.94,6.94,0,0,1,2.44.41,5.34,5.34,0,0,1,1.84,1.13A4.8,4.8,0,0,1,832,73.31a6.59,6.59,0,0,1,.39,2.31,5.94,5.94,0,0,1-.33,2.12,4.12,4.12,0,0,1-.88,1.44,3.62,3.62,0,0,1-1.26.84,4.35,4.35,0,0,1-1.46.32v.19a4.86,4.86,0,0,1,1.56.28,4.65,4.65,0,0,1,1.54.9,5,5,0,0,1,1.18,1.57,5.43,5.43,0,0,1,.47,2.38,7.06,7.06,0,0,1-.42,2.46,6.3,6.3,0,0,1-1.18,2,5.65,5.65,0,0,1-1.8,1.34,5.3,5.3,0,0,1-2.26.49H816.42Zm4.16,9.15h5.12a2.4,2.4,0,0,0,1.76-.61,2.28,2.28,0,0,0,.63-1.71v-1a2.28,2.28,0,0,0-.63-1.71,2.4,2.4,0,0,0-1.76-.62h-5.12Zm0,9.28h5.78a2.62,2.62,0,0,0,1.86-.61,2.31,2.31,0,0,0,.66-1.78V85a2.36,2.36,0,0,0-.66-1.79,2.59,2.59,0,0,0-1.86-.63h-5.78Z"/><path d="M843.66,92.32a8.15,8.15,0,0,1-3.25-.61A6.66,6.66,0,0,1,838,90a7.81,7.81,0,0,1-1.52-2.7,11.06,11.06,0,0,1-.54-3.57,11.43,11.43,0,0,1,.52-3.53,7.82,7.82,0,0,1,1.5-2.69,6.63,6.63,0,0,1,2.39-1.73,8,8,0,0,1,3.21-.61,7.82,7.82,0,0,1,3.33.66,6.52,6.52,0,0,1,2.33,1.79,7.84,7.84,0,0,1,1.37,2.63,11,11,0,0,1,.45,3.19v1.32H840.11v.41a4,4,0,0,0,1,2.86,3.9,3.9,0,0,0,3,1.07,4.42,4.42,0,0,0,2.47-.62,7.37,7.37,0,0,0,1.72-1.59l2.17,2.43a6.87,6.87,0,0,1-2.76,2.22A9.49,9.49,0,0,1,843.66,92.32Zm-.06-14.15a3.24,3.24,0,0,0-2.55,1.07,4,4,0,0,0-.94,2.77v.25h6.73V82a4.36,4.36,0,0,0-.83-2.76A2.9,2.9,0,0,0,843.6,78.17Z"/><path d="M859.7,92a4.27,4.27,0,0,1-3.16-1.09,4.18,4.18,0,0,1-1.08-3.09v-9H853V75.53h1.25a1.5,1.5,0,0,0,1.25-.43,2,2,0,0,0,.33-1.27V71h3.61v4.5h3.37v3.24h-3.37v9.94h3.12V92Z"/><path d="M878.42,92a2.83,2.83,0,0,1-2.09-.77,3.49,3.49,0,0,1-1-2.06h-.19a3.81,3.81,0,0,1-1.67,2.4,5.64,5.64,0,0,1-3.11.8A5.35,5.35,0,0,1,866.53,91a4.69,4.69,0,0,1-1.35-3.51A4.23,4.23,0,0,1,867,83.72a9.17,9.17,0,0,1,5.19-1.24H875v-1.2a3,3,0,0,0-.72-2.14,3.14,3.14,0,0,0-2.33-.75,3.87,3.87,0,0,0-2.28.61,5.83,5.83,0,0,0-1.46,1.47l-2.39-2.16A6.82,6.82,0,0,1,868.23,76a8,8,0,0,1,4-.87,7.51,7.51,0,0,1,5.07,1.51A5.43,5.43,0,0,1,879,81v7.72h1.63V92Zm-6.67-2.55a4.3,4.3,0,0,0,2.3-.59,1.94,1.94,0,0,0,.94-1.75V84.9h-2.58c-2.1,0-3.14.67-3.14,2v.53a1.72,1.72,0,0,0,.64,1.48A3,3,0,0,0,871.75,89.4Z"/><path d="M906.19,92H891V88.11l6.89-6a15.25,15.25,0,0,0,2.58-2.78,4.85,4.85,0,0,0,.81-2.69v-.41a2.69,2.69,0,0,0-.94-2.22,3.53,3.53,0,0,0-2.3-.77,3.3,3.3,0,0,0-2.57,1,5.53,5.53,0,0,0-1.26,2.31l-3.59-1.38a8.66,8.66,0,0,1,1-2.09,6.6,6.6,0,0,1,1.59-1.75,7.6,7.6,0,0,1,2.24-1.2,10,10,0,0,1,6,0,6.49,6.49,0,0,1,2.28,1.37,6,6,0,0,1,1.42,2.08,7.28,7.28,0,0,1,.05,5.12,9.56,9.56,0,0,1-1.2,2.16,13.85,13.85,0,0,1-1.76,2c-.67.62-1.38,1.24-2.14,1.87l-4.62,3.81h10.72Z"/></g></svg>