<?xml version="1.0" encoding="UTF-8"?>
<svg width="950px" height="183px" viewBox="0 0 950 183" version="1.1" xmlns="http://www.w3.org/2000/svg" xmlns:xlink="http://www.w3.org/1999/xlink">
    <!-- Generator: Sketch 51.2 (57519) - http://www.bohemiancoding.com/sketch -->
    <title>curricle-beta-logo_black</title>
    <desc>Created with Sketch.</desc>
    <defs></defs>
    <g id="curricle-beta-logo_black" stroke="none" stroke-width="1" fill="none" fill-rule="evenodd">
        <rect fill="#000000" x="0" y="0" width="950" height="183"></rect>
        <path d="M737.546862,43.7340214 C731.578476,43.7340214 726.740142,48.5723547 726.740142,54.5407412 L726.740142,134.6073 C726.740142,140.575686 731.578476,145.41402 737.546862,145.41402 L907.213419,145.41402 C913.181806,145.41402 918.020139,140.575686 918.020139,134.6073 L918.020139,54.5407412 C918.020139,48.5723547 913.181806,43.7340214 907.213419,43.7340214 L737.546862,43.7340214 Z M907.213419,38.5740214 C916.031595,38.5740214 923.180139,45.7225653 923.180139,54.5407412 L923.180139,134.6073 C923.180139,143.425476 916.031595,150.57402 907.213419,150.57402 L737.546862,150.57402 C728.728686,150.57402 721.580142,143.425476 721.580142,134.6073 L721.580142,54.5407412 C721.580142,45.7225653 728.728686,38.5740214 737.546862,38.5740214 L907.213419,38.5740214 Z" id="Rectangle-40-Copy-15" fill="#FFFFFF" fill-rule="nonzero"></path>
        <path d="M755.979399,117.725081 L755.979399,70.9170453 L775.225683,70.9170453 C782.937609,70.9170453 787.698884,75.6783211 787.698884,82.9878854 C787.698884,89.9621486 783.205849,92.4433768 780.121079,92.9127984 L780.121079,93.3151597 C783.47409,93.5163404 789.30833,96.39993 789.30833,104.178916 C789.30833,111.890841 784.144693,117.725081 777.23749,117.725081 L755.979399,117.725081 Z M761.612458,95.9975686 L761.612458,112.762624 L775.493924,112.762624 C780.32226,112.762624 783.27291,110.214336 783.27291,105.52012 L783.27291,103.240073 C783.27291,98.5458571 780.32226,95.9975686 775.493924,95.9975686 L761.612458,95.9975686 Z M761.612458,75.8795018 L761.612458,91.1692326 L774.555081,91.1692326 C778.981055,91.1692326 781.663464,88.8221248 781.663464,84.664391 L781.663464,82.3843434 C781.663464,78.2266096 778.981055,75.8795018 774.555081,75.8795018 L761.612458,75.8795018 Z M813.642926,118.529804 C804.254495,118.529804 798.084954,111.42142 798.084954,100.423543 C798.084954,89.4256668 804.254495,82.3172832 813.642926,82.3172832 C822.897237,82.3172832 828.597356,89.4256668 828.597356,99.2164593 L828.597356,101.764748 L803.718013,101.764748 L803.718013,103.374193 C803.718013,109.342553 807.540446,113.835588 813.978227,113.835588 C818.337142,113.835588 821.690153,111.689661 823.500779,107.867228 L827.323211,110.616697 C825.110224,115.310913 820.147768,118.529804 813.642926,118.529804 Z M813.642926,86.8103181 C807.808687,86.8103181 803.718013,91.2362928 803.718013,97.2717129 L803.718013,97.7411344 L822.830176,97.7411344 L822.830176,97.003472 C822.830176,90.9009917 819.141864,86.8103181 813.642926,86.8103181 Z M853.200193,117.725081 L846.49417,117.725081 C842.805858,117.725081 840.794051,115.377973 840.794051,112.024962 L840.794051,87.8162215 L835.093933,87.8162215 L835.093933,83.1220059 L838.312823,83.1220059 C840.592871,83.1220059 841.330533,82.3172832 841.330533,79.9701754 L841.330533,73.532394 L846.158869,73.532394 L846.158869,83.1220059 L853.736674,83.1220059 L853.736674,87.8162215 L846.158869,87.8162215 L846.158869,113.030865 L853.200193,113.030865 L853.200193,117.725081 Z M891.952737,117.725081 L888.935027,117.725081 C884.978474,117.725081 883.369028,115.310913 882.966667,112.092022 L882.631366,112.092022 C881.156041,116.316816 877.467729,118.529804 872.639393,118.529804 C865.329828,118.529804 861.037974,114.50619 861.037974,108.068409 C861.037974,101.563567 865.73219,97.9423151 875.791223,97.9423151 L882.631366,97.9423151 L882.631366,94.5222437 C882.631366,89.6268475 879.948957,86.9444386 874.450019,86.9444386 C870.292285,86.9444386 867.542816,88.9562452 865.665129,92.1080757 L862.446239,89.0903657 C864.323925,85.4020534 868.481659,82.3172832 874.71826,82.3172832 C883.033727,82.3172832 887.996184,86.6761977 887.996184,93.985762 L887.996184,113.030865 L891.952737,113.030865 L891.952737,117.725081 Z M873.511176,113.969708 C878.808933,113.969708 882.631366,111.220239 882.631366,107.666047 L882.631366,101.965928 L875.522982,101.965928 C869.420502,101.965928 866.671033,103.843615 866.671033,107.196626 L866.671033,108.604891 C866.671033,112.024962 869.353442,113.969708 873.511176,113.969708 Z" id="Beta" fill="#FFFFFF"></path>
        <path d="M58.5821964,123.013656 C44.3133967,123.013656 35.6109968,113.056857 35.6109968,94.7112568 C35.6109968,76.3656571 44.3133967,66.4088573 58.5821964,66.4088573 C68.0685963,66.4088573 74.4189962,70.6424572 78.1037961,78.7960571 L70.6557962,82.872857 C68.7741963,77.6984571 64.9325963,74.3272572 58.5821964,74.3272572 C50.1933966,74.3272572 45.0189967,80.4424571 45.0189967,90.5560569 L45.0189967,98.8664568 C45.0189967,108.980057 50.1933966,115.095256 58.5821964,115.095256 C65.0893963,115.095256 69.2445962,111.332057 71.2045962,106.000857 L78.3389961,110.312857 C74.6541962,118.231256 68.0685963,123.013656 58.5821964,123.013656 Z M121.033394,67.3496573 L129.735794,67.3496573 L129.735794,101.061657 C129.735794,110.312857 132.950194,115.095256 141.495794,115.095256 C150.041394,115.095256 153.255794,110.312857 153.255794,101.061657 L153.255794,67.3496573 L161.958194,67.3496573 L161.958194,99.6504567 C161.958194,115.644056 156.470194,123.013656 141.495794,123.013656 C126.521394,123.013656 121.033394,115.644056 121.033394,99.6504567 L121.033394,67.3496573 Z M217.588592,99.9640567 L217.588592,122.072856 L208.729392,122.072856 L208.729392,67.3496573 L232.327792,67.3496573 C242.127791,67.3496573 248.164591,73.7000572 248.164591,83.813657 C248.164591,91.5752569 244.479791,96.9848568 237.502191,99.0232568 L249.340591,122.072856 L239.462191,122.072856 L228.486192,99.9640567 L217.588592,99.9640567 Z M217.588592,92.5160569 L231.700592,92.5160569 C236.169391,92.5160569 238.834991,90.0856569 238.834991,85.695257 L238.834991,81.932057 C238.834991,77.5416571 236.169391,75.1112572 231.700592,75.1112572 L217.588592,75.1112572 L217.588592,92.5160569 Z M302.540589,99.9640567 L302.540589,122.072856 L293.68139,122.072856 L293.68139,67.3496573 L317.279789,67.3496573 C327.079789,67.3496573 333.116589,73.7000572 333.116589,83.813657 C333.116589,91.5752569 329.431789,96.9848568 322.454189,99.0232568 L334.292589,122.072856 L324.414189,122.072856 L313.438189,99.9640567 L302.540589,99.9640567 Z M302.540589,92.5160569 L316.652589,92.5160569 C321.121389,92.5160569 323.786989,90.0856569 323.786989,85.695257 L323.786989,81.932057 C323.786989,77.5416571 321.121389,75.1112572 316.652589,75.1112572 L302.540589,75.1112572 L302.540589,92.5160569 Z M400.114987,122.072856 L376.281387,122.072856 L376.281387,114.860056 L383.729387,114.860056 L383.729387,74.5624572 L376.281387,74.5624572 L376.281387,67.3496573 L400.114987,67.3496573 L400.114987,74.5624572 L392.588587,74.5624572 L392.588587,114.860056 L400.114987,114.860056 L400.114987,122.072856 Z M465.388585,123.013656 C451.119785,123.013656 442.417385,113.056857 442.417385,94.7112568 C442.417385,76.3656571 451.119785,66.4088573 465.388585,66.4088573 C474.874985,66.4088573 481.225384,70.6424572 484.910184,78.7960571 L477.462185,82.872857 C475.580585,77.6984571 471.738985,74.3272572 465.388585,74.3272572 C456.999785,74.3272572 451.825385,80.4424571 451.825385,90.5560569 L451.825385,98.8664568 C451.825385,108.980057 456.999785,115.095256 465.388585,115.095256 C471.895785,115.095256 476.050985,111.332057 478.010985,106.000857 L485.145384,110.312857 C481.460584,118.231256 474.874985,123.013656 465.388585,123.013656 Z M559.278182,122.072856 L528.153383,122.072856 L528.153383,67.3496573 L537.012583,67.3496573 L537.012583,114.232856 L559.278182,114.232856 L559.278182,122.072856 Z M637.01738,122.072856 L601.97258,122.072856 L601.97258,67.3496573 L637.01738,67.3496573 L637.01738,75.1896572 L610.83178,75.1896572 L610.83178,89.6936569 L634.58698,89.6936569 L634.58698,97.5336568 L610.83178,97.5336568 L610.83178,114.232856 L637.01738,114.232856 L637.01738,122.072856 Z" id="CURRICLE" fill="#FFFFFF" transform="translate(336.314188, 94.711257) rotate(-360.000000) translate(-336.314188, -94.711257) "></path>
    </g>
</svg>