<?xml version="1.0" encoding="utf-8"?>
<!-- Generator: Adobe Illustrator 21.1.0, SVG Export Plug-In . SVG Version: 6.00 Build 0)  -->
<svg version="1.1" id="Layer_1" xmlns="http://www.w3.org/2000/svg" xmlns:xlink="http://www.w3.org/1999/xlink" x="0px" y="0px"
	 viewBox="0 0 950 183" style="enable-background:new 0 0 950 183;" xml:space="preserve">
<title>curricle-beta-logo_black</title>
<desc>Created with Sketch.</desc>
<g id="curricle-beta-logo_black">
	<path id="Rectangle-40-Copy-15" d="M737.5,43.7c-6,0-10.8,4.8-10.8,10.8v80.1c0,6,4.8,10.8,10.8,10.8h169.7c6,0,10.8-4.8,10.8-10.8
		V54.5c0-6-4.8-10.8-10.8-10.8H737.5z M907.2,38.6c8.8,0,16,7.1,16,16v80.1c0,8.8-7.1,16-16,16H737.5c-8.8,0-16-7.1-16-16V54.5
		c0-8.8,7.1-16,16-16H907.2z"/>
	<path id="Beta" d="M756,117.7V70.9h19.2c7.7,0,12.5,4.8,12.5,12.1c0,7-4.5,9.5-7.6,9.9v0.4c3.4,0.2,9.2,3.1,9.2,10.9
		c0,7.7-5.2,13.5-12.1,13.5H756z M761.6,96v16.8h13.9c4.8,0,7.8-2.5,7.8-7.2v-2.3c0-4.7-3-7.2-7.8-7.2H761.6z M761.6,75.9v15.3h12.9
		c4.4,0,7.1-2.3,7.1-6.5v-2.3c0-4.2-2.7-6.5-7.1-6.5H761.6z M813.6,118.5c-9.4,0-15.6-7.1-15.6-18.1s6.2-18.1,15.6-18.1
		c9.3,0,15,7.1,15,16.9v2.5h-24.9v1.6c0,6,3.8,10.5,10.3,10.5c4.4,0,7.7-2.1,9.5-6l3.8,2.7C825.1,115.3,820.1,118.5,813.6,118.5z
		 M813.6,86.8c-5.8,0-9.9,4.4-9.9,10.5v0.5h19.1V97C822.8,90.9,819.1,86.8,813.6,86.8z M853.2,117.7h-6.7c-3.7,0-5.7-2.3-5.7-5.7
		V87.8h-5.7v-4.7h3.2c2.3,0,3-0.8,3-3.2v-6.4h4.8v9.6h7.6v4.7h-7.6V113h7V117.7z M892,117.7h-3c-4,0-5.6-2.4-6-5.6h-0.3
		c-1.5,4.2-5.2,6.4-10,6.4c-7.3,0-11.6-4-11.6-10.5c0-6.5,4.7-10.1,14.8-10.1h6.8v-3.4c0-4.9-2.7-7.6-8.2-7.6c-4.2,0-6.9,2-8.8,5.2
		l-3.2-3c1.9-3.7,6-6.8,12.3-6.8c8.3,0,13.3,4.4,13.3,11.7v19h4V117.7z M873.5,114c5.3,0,9.1-2.7,9.1-6.3V102h-7.1
		c-6.1,0-8.9,1.9-8.9,5.2v1.4C866.7,112,869.4,114,873.5,114z"/>
	<path id="CURRICLE" d="M58.6,123c-14.3,0-23-10-23-28.3s8.7-28.3,23-28.3c9.5,0,15.8,4.2,19.5,12.4l-7.4,4.1
		c-1.9-5.2-5.7-8.5-12.1-8.5c-8.4,0-13.6,6.1-13.6,16.2v8.3c0,10.1,5.2,16.2,13.6,16.2c6.5,0,10.7-3.8,12.6-9.1l7.1,4.3
		C74.7,118.2,68.1,123,58.6,123z M121,67.3h8.7v33.7c0,9.3,3.2,14,11.8,14c8.5,0,11.8-4.8,11.8-14V67.3h8.7v32.3
		c0,16-5.5,23.4-20.5,23.4c-15,0-20.5-7.4-20.5-23.4V67.3z M217.6,100v22.1h-8.9V67.3h23.6c9.8,0,15.8,6.4,15.8,16.5
		c0,7.8-3.7,13.2-10.7,15.2l11.8,23h-9.9l-11-22.1H217.6z M217.6,92.5h14.1c4.5,0,7.1-2.4,7.1-6.8v-3.8c0-4.4-2.7-6.8-7.1-6.8h-14.1
		V92.5z M302.5,100v22.1h-8.9V67.3h23.6c9.8,0,15.8,6.4,15.8,16.5c0,7.8-3.7,13.2-10.7,15.2l11.8,23h-9.9l-11-22.1H302.5z
		 M302.5,92.5h14.1c4.5,0,7.1-2.4,7.1-6.8v-3.8c0-4.4-2.7-6.8-7.1-6.8h-14.1V92.5z M400.1,122.1h-23.8v-7.2h7.4V74.6h-7.4v-7.2h23.8
		v7.2h-7.5v40.3h7.5V122.1z M465.4,123c-14.3,0-23-10-23-28.3s8.7-28.3,23-28.3c9.5,0,15.8,4.2,19.5,12.4l-7.4,4.1
		c-1.9-5.2-5.7-8.5-12.1-8.5c-8.4,0-13.6,6.1-13.6,16.2v8.3c0,10.1,5.2,16.2,13.6,16.2c6.5,0,10.7-3.8,12.6-9.1l7.1,4.3
		C481.5,118.2,474.9,123,465.4,123z M559.3,122.1h-31.1V67.3h8.9v46.9h22.3V122.1z M637,122.1h-35V67.3h35v7.8h-26.2v14.5h23.8v7.8
		h-23.8v16.7H637V122.1z"/>
</g>
</svg>
